<svg xmlns="http://www.w3.org/2000/svg" viewBox="0 0 48 48"><defs><style>.cls-1{fill:#2d4a60;}.cls-2{fill:#8fa5a5;}.cls-3{fill:#eaeff0;}</style></defs><title>Gym</title><g id="Gym"><rect class="cls-1" x="10" y="11" width="7" height="26" rx="2" id="id_101" style="fill: rgb(230, 138, 25);"></rect><rect class="cls-1" x="31" y="11" width="7" height="26" rx="2" id="id_102" style="fill: rgb(230, 138, 25);"></rect><path class="cls-2" d="M38,33h3a2,2,0,0,0,2-2V17a2,2,0,0,0-2-2H38Z" id="id_103" style="fill: rgb(219, 167, 103);"></path><path class="cls-2" d="M10,33H7a2,2,0,0,1-2-2V17a2,2,0,0,1,2-2h3Z" id="id_104" style="fill: rgb(219, 168, 105);"></path><rect class="cls-3" x="17" y="21" width="14" height="6" id="id_105"></rect><path class="cls-3" d="M43,19l2.894,1.447A2,2,0,0,1,47,22.236v3.528a2,2,0,0,1-1.106,1.789L43,29Z" id="id_106"></path><path class="cls-3" d="M5,29,2.106,27.553A2,2,0,0,1,1,25.764V22.236a2,2,0,0,1,1.106-1.789L5,19Z" id="id_107"></path><path d="M46.342,19.553,44,18.382V17a3,3,0,0,0-3-3H39V13a3,3,0,0,0-3-3H33a3,3,0,0,0-3,3v7H18V13a3,3,0,0,0-3-3H12a3,3,0,0,0-3,3v1H7a3,3,0,0,0-3,3v1.382L1.658,19.553A2.984,2.984,0,0,0,0,22.236v3.528a2.984,2.984,0,0,0,1.658,2.683L4,29.618V31a3,3,0,0,0,3,3H9v1a3,3,0,0,0,3,3h3a3,3,0,0,0,3-3V28H30v7a3,3,0,0,0,3,3h3a3,3,0,0,0,3-3V34h2a3,3,0,0,0,3-3V29.618l2.342-1.171A2.984,2.984,0,0,0,48,25.764V22.236A2.984,2.984,0,0,0,46.342,19.553ZM2.553,26.658A.994.994,0,0,1,2,25.764V22.236a.994.994,0,0,1,.553-.894L4,20.618v6.764ZM7,32a1,1,0,0,1-1-1V17a1,1,0,0,1,1-1H9V32Zm9,3a1,1,0,0,1-1,1H12a1,1,0,0,1-1-1V13a1,1,0,0,1,1-1h3a1,1,0,0,1,1,1Zm2-9V22H30v4Zm19,9a1,1,0,0,1-1,1H33a1,1,0,0,1-1-1V13a1,1,0,0,1,1-1h3a1,1,0,0,1,1,1Zm5-4a1,1,0,0,1-1,1H39V16h2a1,1,0,0,1,1,1Zm4-5.236a.994.994,0,0,1-.553.894L44,27.382V20.618l1.447.724a.994.994,0,0,1,.553.894Z" id="id_108" style="fill: rgb(39, 41, 41);"></path></g></svg>